<?xml version="1.0" encoding="UTF-8"?>
<svg xmlns="http://www.w3.org/2000/svg" xmlns:xlink="http://www.w3.org/1999/xlink" width="317pt" height="200pt" viewBox="0 0 317 200" version="1.1">
<g id="surface1">
<path style=" stroke:none;fill-rule:nonzero;fill:rgb(3.921569%,31.372549%,63.137255%);fill-opacity:1;" d="M 157.351562 0 C 149.109375 -0.046875 139.25 4.582031 139.25 4.582031 L 47.21875 62.941406 C 58.785156 59.746094 85.878906 55.023438 137.113281 59.445312 C 137.113281 59.445312 146.5 60.0625 153.257812 62.527344 C 153.257812 62.527344 157.265625 62.773438 157.140625 66.96875 C 157.140625 66.96875 156.515625 70.664062 153.257812 70.171875 C 153.257812 70.171875 148.503906 69.925781 147.25 75.105469 C 147.25 75.105469 145.246094 80.777344 150.878906 83.363281 C 150.878906 83.363281 170.722656 100.5625 215.410156 100.007812 C 215.410156 100.007812 246.957031 101.425781 264.984375 82.933594 C 264.984375 82.933594 273.195312 71.03125 263.300781 59.007812 L 177.46875 4.582031 C 177.46875 4.582031 166.964844 -0.347656 158.578125 0.0195312 L 158.140625 0.0195312 C 157.878906 0.0078125 157.617188 0 157.351562 0 Z M 79.96875 67.921875 C 76.480469 67.90625 74.335938 68.007812 74.335938 68.007812 C 50.117188 68.6875 31.558594 73.902344 31.558594 73.902344 C 26.464844 75.71875 7.949219 87.890625 7.949219 87.890625 C 2.695312 91.21875 0.046875 95.59375 0 99.976562 L 0 100.007812 C 0.046875 104.394531 2.695312 108.769531 7.949219 112.101562 L 139.320312 195.40625 C 139.320312 195.40625 149.824219 200.335938 158.210938 199.972656 L 158.648438 199.972656 C 167.035156 200.335938 177.539062 195.40625 177.539062 195.40625 L 254.714844 146.464844 C 169.714844 148.707031 136.054688 125.652344 136.054688 125.652344 C 89.488281 103.460938 113.898438 72.023438 113.898438 72.023438 C 101.800781 68.546875 87.640625 67.953125 79.96875 67.921875 Z M 300.179688 82.769531 C 277.175781 115.054688 218.554688 116.03125 218.554688 116.03125 C 171.238281 117.511719 145.324219 103.828125 145.324219 103.828125 C 145.324219 103.828125 166.261719 123.0625 229.730469 126.757812 C 276.441406 129.765625 304.625 115.175781 304.625 115.175781 C 334.601562 99.734375 300.179688 82.769531 300.179688 82.769531 Z M 300.179688 82.769531 "/>
</g>
</svg>
